<?xml version="1.0" encoding="UTF-8"?> <svg xmlns="http://www.w3.org/2000/svg" width="143.452" height="155.727" viewBox="0 0 143.452 155.727"><g id="Group_2406" data-name="Group 2406" transform="translate(0)"><g id="Group_2374" data-name="Group 2374" transform="translate(0 0)"><g id="Group_2372" data-name="Group 2372" transform="translate(0)"><path id="Path_1241" data-name="Path 1241" d="M87.444,96.172l-1.1-3.645a.219.219,0,0,0-.235-.2h-9.6a.217.217,0,0,0-.235.2l-1.1,3.645a.738.738,0,0,1-.744.549H69.888a.587.587,0,0,1-.51-.216.535.535,0,0,1-.039-.529l8.347-26.138a.739.739,0,0,1,.745-.549h5.76a.74.74,0,0,1,.745.549l8.346,26.138a.554.554,0,0,1,.039.235.469.469,0,0,1-.156.372.628.628,0,0,1-.432.138H88.189A.737.737,0,0,1,87.444,96.172Zm-9.6-8.112H84.78c.157,0,.222-.091.2-.274L81.449,75.834c-.027-.1-.072-.156-.138-.156s-.124.052-.177.156L77.647,87.786Q77.608,88.061,77.843,88.06Z" transform="translate(-69.289 -69.289)" fill="#fff"></path><path id="Path_1242" data-name="Path 1242" d="M111.568,96.055v-26.1a.589.589,0,0,1,.666-.667h9.6a12.02,12.02,0,0,1,5.154,1.039,8.027,8.027,0,0,1,3.429,2.919,7.843,7.843,0,0,1,1.215,4.35V88.413a7.844,7.844,0,0,1-1.215,4.35,8.018,8.018,0,0,1-3.429,2.919,12.01,12.01,0,0,1-5.154,1.039h-9.6A.589.589,0,0,1,111.568,96.055Zm5.761-4.075h4.7a3.779,3.779,0,0,0,2.919-1.215,4.758,4.758,0,0,0,1.156-3.253V78.5a4.618,4.618,0,0,0-1.117-3.252,3.877,3.877,0,0,0-3-1.216h-4.663a.208.208,0,0,0-.235.236V91.744A.208.208,0,0,0,117.329,91.979Z" transform="translate(-84.008 -69.289)" fill="#fff"></path><path id="Path_1243" data-name="Path 1243" d="M148.42,96.055v-26.1a.589.589,0,0,1,.666-.667h4.193a.878.878,0,0,1,.784.432l5.682,9.17a.216.216,0,0,0,.176.117c.065,0,.111-.038.137-.117l5.761-9.17a.876.876,0,0,1,.784-.432H170.8a.589.589,0,0,1,.666.667v26.1a.589.589,0,0,1-.666.666H166.6a.589.589,0,0,1-.666-.666V79.086c0-.1-.033-.169-.1-.2s-.125.013-.176.117L161.7,85.474a.874.874,0,0,1-.784.431h-2a.874.874,0,0,1-.784-.431l-3.919-6.466c-.053-.1-.111-.143-.177-.117s-.1.091-.1.2V96.055a.589.589,0,0,1-.666.666h-4.193A.588.588,0,0,1,148.42,96.055Z" transform="translate(-96.838 -69.289)" fill="#fff"></path></g><g id="Group_2373" data-name="Group 2373" transform="translate(95.996 127.668)"><path id="Path_1244" data-name="Path 1244" d="M233.329,283.426v3.41a.589.589,0,0,1-.666.666h-5.134a.208.208,0,0,0-.235.235v5.055a.589.589,0,0,1-.666.666h-3.37a.589.589,0,0,1-.666-.666v-5.055a.208.208,0,0,0-.235-.235h-5.134a.588.588,0,0,1-.666-.666v-3.41a.589.589,0,0,1,.666-.666h5.134a.207.207,0,0,0,.235-.235v-5.173a.588.588,0,0,1,.666-.666h3.37a.588.588,0,0,1,.666.666v5.173a.208.208,0,0,0,.235.235h5.134A.589.589,0,0,1,233.329,283.426Z" transform="translate(-216.556 -269.162)" fill="#fff"></path><path id="Path_1245" data-name="Path 1245" d="M263.157,292.183a8.159,8.159,0,0,1-3.566-2.861,7.468,7.468,0,0,1-1.254-4.31v-.666a.589.589,0,0,1,.666-.666h4.115q.666,0,.666.509v.549a3.212,3.212,0,0,0,1.431,2.645,6.058,6.058,0,0,0,3.742,1.078,4.558,4.558,0,0,0,3.077-.881,2.79,2.79,0,0,0,1-2.175,2.193,2.193,0,0,0-.627-1.587,5.585,5.585,0,0,0-1.685-1.136q-1.058-.49-3.409-1.352a31.782,31.782,0,0,1-4.467-1.842,9.163,9.163,0,0,1-3.057-2.567,6.374,6.374,0,0,1-1.254-4.017,7.075,7.075,0,0,1,1.214-4.115,7.723,7.723,0,0,1,3.39-2.7,12.376,12.376,0,0,1,4.957-.941,12.842,12.842,0,0,1,5.329,1.059,8.638,8.638,0,0,1,3.665,2.958,7.57,7.57,0,0,1,1.312,4.409v.392a.588.588,0,0,1-.666.666H273.62q-.667,0-.666-.392v-.392a3.561,3.561,0,0,0-1.352-2.8,5.517,5.517,0,0,0-3.7-1.156,4.674,4.674,0,0,0-2.9.783,2.572,2.572,0,0,0-1.019,2.156,2.4,2.4,0,0,0,.588,1.646,5.277,5.277,0,0,0,1.783,1.214q1.2.549,3.7,1.411,2.742,1.019,4.349,1.783a8.33,8.33,0,0,1,2.881,2.332,6.2,6.2,0,0,1,1.274,4.036,7.236,7.236,0,0,1-1.235,4.193,7.934,7.934,0,0,1-3.487,2.783,14.762,14.762,0,0,1-10.679-.04Z" transform="translate(-231.102 -265.143)" fill="#fff"></path></g></g><g id="Group_2378" data-name="Group 2378" transform="translate(0 9.639)"><g id="Group_2376" data-name="Group 2376" transform="translate(0 31.554)"><path id="Path_1246" data-name="Path 1246" d="M151.525,238.158H69.289V132.481H75.82v99.146h75.7Z" transform="translate(-69.289 -132.481)" fill="#fff"></path></g><g id="Group_2377" data-name="Group 2377" transform="translate(88.385 0)"><path id="Path_1247" data-name="Path 1247" d="M253.724,188.345h-6.531V90.607H204.879V84.076h48.845Z" transform="translate(-204.879 -84.076)" fill="#fff"></path></g></g></g></svg> 